<svg xmlns="http://www.w3.org/2000/svg" width="96" height="25" viewBox="0 0 96 25" fill="none">
<g clip-path="url(#clip0_339_1633)">
<path d="M12.7925 24.6149C5.70393 24.6149 0 20.2581 0 12.3074C0 4.35677 5.70393 0 12.7925 0C14.843 0 16.4878 0.328522 17.738 0.734213C19.4908 1.30306 20.4455 3.19261 19.8899 4.95208C19.3277 6.7358 17.4116 7.74561 15.6389 7.1459C14.9334 6.90777 14.1419 6.7402 13.3106 6.7402C10.3716 6.7402 7.84924 8.4688 7.84924 12.2016C7.84924 15.9344 10.5458 17.5594 13.3106 17.5594C14.3645 17.5594 15.2928 17.394 16.0954 17.1316C17.8592 16.5562 19.7642 17.4535 20.3926 19.1976C20.9813 20.8292 20.2581 22.6592 18.6949 23.4088C17.3301 24.0637 15.4141 24.6105 12.7925 24.6105V24.6149Z" fill="#B0E8FE"/>
<path d="M37.3041 20.2934V15.3832H30.8042V20.2934C30.8042 22.4519 29.0558 24.2004 26.8972 24.2004C24.7387 24.2004 22.9902 22.4519 22.9902 20.2934V4.25317C22.9902 2.09463 24.7387 0.346191 26.8972 0.346191C29.0558 0.346191 30.8042 2.09463 30.8042 4.25317V8.98918H37.3041V4.25317C37.3041 2.09463 39.0525 0.346191 41.2111 0.346191C43.3696 0.346191 45.118 2.09463 45.118 4.25317V20.2934C45.118 22.4519 43.3696 24.2004 41.2111 24.2004C39.0525 24.2004 37.3041 22.4519 37.3041 20.2934Z" fill="#B0E8FE"/>
<path d="M60.9794 4.07232C60.5054 2.88171 59.5794 1.87189 58.3072 1.32289C55.7694 0.227079 52.8215 1.39785 51.7257 3.93783L46.2445 16.6421C45.6955 17.9143 45.7131 19.2857 46.1872 20.4764C46.6612 21.667 47.5872 22.6768 48.8572 23.2258C51.3972 24.3216 54.3451 23.1508 55.4409 20.6109L60.9221 7.90655C61.4689 6.63656 61.4513 5.26514 60.9794 4.07232ZM57.4782 12.5499L50.7115 9.63073L52.9075 4.54196C53.6395 2.84423 55.7055 1.84102 57.4649 2.41649C59.5507 3.09999 60.5583 5.41287 59.7095 7.384L57.4804 12.5521L57.4782 12.5499Z" fill="#B0E8FE"/>
<path d="M62.0488 20.2317V4.23553C62.0488 2.08802 63.7907 0.346191 65.9382 0.346191C68.0857 0.346191 69.8275 2.08802 69.8275 4.23553V17.8041H74.7531C76.5192 17.8041 77.9502 19.2351 77.9502 21.0012C77.9502 22.7672 76.5192 24.1982 74.7531 24.1982H66.0175C63.8259 24.1982 62.0488 22.4211 62.0488 20.2295V20.2317Z" fill="#B0E8FE"/>
<path d="M80.0273 20.2317V4.23553C80.0273 2.08802 81.7692 0.346191 83.9167 0.346191C86.0642 0.346191 87.806 2.08802 87.806 4.23553V17.8041H92.7316C94.4977 17.8041 95.9287 19.2351 95.9287 21.0012C95.9287 22.7672 94.4977 24.1982 92.7316 24.1982H83.9961C81.8044 24.1982 80.0273 22.4211 80.0273 20.2295V20.2317Z" fill="#B0E8FE"/>
</g>
<defs>
<clipPath id="clip0_339_1633">
<rect width="95.9305" height="24.6149" fill="white"/>
</clipPath>
</defs>
</svg>