<svg xmlns="http://www.w3.org/2000/svg" width="26" height="19" viewBox="0 0 26 19" fill="none">
<path fill-rule="evenodd" clip-rule="evenodd" d="M22.7917 2.3751C19.5835 -0.0564356 16.5421 0.000111698 16.5421 0.000111698L16.2268 0.358245C19.7689 1.47034 21.5492 3.03482 21.7532 3.22331C19.4351 1.94157 17.1912 1.31955 15.077 1.07451C13.4636 0.886019 11.9429 0.923717 10.5706 1.11221L10.1997 1.14991C9.42083 1.2253 7.52924 1.52689 5.15549 2.58244C4.43224 2.92172 3.96862 3.16676 3.85735 3.22331C4.07989 3.01597 5.93438 1.3761 9.68046 0.282848L9.45792 0.000111698C9.45792 0.000111698 6.41655 -0.0564356 3.20827 2.3751C3.20827 2.3751 0 8.27487 0 15.5695C0 15.5695 1.87304 18.8492 6.78745 19C6.78745 19 7.62197 17.9821 8.28959 17.1339C5.63766 16.3234 4.52496 14.6836 4.41369 14.4762L5.00713 14.8343L5.09986 14.9097L5.19258 14.9663H5.21113L5.30385 15.0228C5.8602 15.3433 6.41655 15.5883 6.93581 15.7957C7.84451 16.1538 8.93866 16.5119 10.1997 16.757C11.8688 17.0774 13.8345 17.1905 15.9672 16.7947C17.0057 16.6062 18.0813 16.2857 19.194 15.8145C19.9729 15.5129 20.826 15.0982 21.7347 14.4951C21.6048 14.7024 20.4551 16.3988 17.729 17.1716C18.3966 18.0387 19.194 19 19.194 19C24.1084 18.8492 26 15.5695 26 15.5695C26 8.27487 22.7917 2.3751 22.7917 2.3751ZM8.84593 13.4584C7.60342 13.4584 6.56491 12.3274 6.56491 10.9514C6.56491 9.57545 7.56633 8.44451 8.84593 8.44451C10.1255 8.44451 11.127 9.57545 11.1084 10.9514C11.1084 12.3274 10.107 13.4584 8.84593 13.4584ZM16.9686 13.4584C15.7261 13.4584 14.6876 12.3274 14.6876 10.9514C14.6876 9.57545 15.689 8.44451 16.9686 8.44451C18.2482 8.44451 19.2311 9.57545 19.2311 10.9514C19.2311 12.3274 18.2297 13.4584 16.9686 13.4584Z" fill="#B0E8FE"/>
</svg>